# xmcd
#
# Track frame offsets:
#	150
#	18307
#	33201
#	51513
#	67969
#	89746
#	105115
#	124265
#	138079
#	150305
#	170139
#	181980
#	193984
#	212628
#	228419
#	238002
#
# Disc length: 3436
#
# Revision: 2
# Processed by: cddbd v1.5.1PL0 Copyright (c) Steve Scherf et al.
# Submitted via: CDex 1.40Release
# Normalized: r1:TDELIM( - )
#
DISCID=d70d6a10
DTITLE=WIVK - Various - Season's Greetings
DYEAR=2002
DGENRE=Country
TTITLE0=Kellie Coffey - When You Lie Next To Me
TTITLE1=Steve Wariner - Holes In The Floor Of Heaven
TTITLE2=Clay Davidson - Unconditional
TTITLE3=Montgomery Gentry - Hillbilly Shoes
TTITLE4=Nickel Creek - The Lighthouse's Tale
TTITLE5=Brad Paisley - He Didn't Have To Be
TTITLE6=Ricochet - Seven Bridges Road
TTITLE7=Cyndi Thomson - What I Really Meant To Say
TTITLE8=Clay Walker - Rumer Has It
TTITLE9=Julie Reeves - If Heartaches Had Wings
TTITLE10=Kenny Chesney - She Thinks My Tractor's Sexy
TTITLE11=Kenny Rogers - The Greatest
TTITLE12=T Graham Brown - Wine Into Water
TTITLE13=Sonya Isaacs - I've Forgotten How You Feel
TTITLE14=Chalee Tennison - One Of A Kind
TTITLE15=Martina McBride - Silent Night
EXTD=YEAR: 2002 ID3G: 2
EXTT0=
EXTT1=
EXTT2=
EXTT3=
EXTT4=
EXTT5=
EXTT6=
EXTT7=
EXTT8=
EXTT9=
EXTT10=
EXTT11=
EXTT12=
EXTT13=
EXTT14=
EXTT15=
PLAYORDER=
